{
  "accessors": [
    {
      "bufferView": 0,
      "componentType": 5126,
      "count": 3,
      "min": [
        0.0,
        0.0,
        0.0
      ],
      "max": [
        1.0,
        1.0,
        0.0
      ],
      "type": "VEC3"
    }
  ],
  "asset": {
    "version": "2.0"
  },
  "bufferViews": [
    {
      "buffer": 0,
      "byteLength": 36,
      "target": 34962
    }
  ],
  "materials": [
    {
      "name": "WHITE",
      "extensions": {
        "VENDOR_material_some_ext": {}
      }
    }
  ],
  "meshes": [
    {
      "primitives": [
        {
          "attributes": {
            "POSITION": 0
          },
          "mode": 4
        }
      ]
    }
  ],
  "nodes": [
    {
      "mesh": 0
    }
  ],
  "scenes": [
    {
      "nodes": [
        0
      ]
    }
  ],
  "extensionsUsed": [
    "VENDOR_material_some_ext"
  ],
  "buffers": [
    {
      "byteLength": 36,
      "uri": "data:application/octet-stream;base64,"
    }
  ]
}
